<?xml version="1.0" encoding="UTF-8"?>
<svg xmlns="http://www.w3.org/2000/svg" xmlns:xlink="http://www.w3.org/1999/xlink" width="300px" height="180px" viewBox="0 0 300 180" version="1.1">
<g id="surface1">
<path style=" stroke:none;fill-rule:evenodd;fill:rgb(83.137255%,26.666667%,98.823529%);fill-opacity:1;" d="M 129.78125 6.890625 C 125.789062 7.605469 118.117188 10.03125 112.738281 12.28125 C 80.054688 25.957031 59.417969 59.046875 61.78125 93.976562 C 63.257812 115.785156 70.960938 132.574219 86.621094 148.117188 C 102.515625 163.894531 121.882812 171.816406 144.546875 171.816406 C 167.644531 171.816406 186.878906 163.824219 203.304688 147.398438 C 219.550781 131.152344 227.746094 111.660156 227.707031 89.371094 C 227.636719 51.644531 203.820312 19.726562 167.726562 8.984375 C 158.417969 6.210938 139.433594 5.164062 129.78125 6.890625 M 116.570312 47.96875 C 116.183594 48.976562 116.03125 68.203125 116.230469 90.695312 C 116.542969 125.976562 116.871094 131.589844 118.636719 131.589844 C 120.410156 131.589844 120.683594 125.996094 120.683594 89.429688 C 120.683594 56.925781 120.292969 47.140625 118.980469 46.703125 C 118.039062 46.390625 116.957031 46.960938 116.570312 47.96875 M 104.28125 67.101562 C 103.886719 68.128906 103.734375 78.765625 103.941406 90.738281 C 104.257812 109.003906 104.648438 112.5 106.363281 112.5 C 108.101562 112.5 108.410156 109.027344 108.410156 89.429688 C 108.410156 72.195312 107.976562 66.21875 106.707031 65.796875 C 105.769531 65.484375 104.679688 66.070312 104.28125 67.101562 M 128.472656 67.074219 C 126.507812 69.039062 126.144531 108.644531 128.066406 111.675781 C 128.738281 112.738281 130.25 113.203125 131.484375 112.730469 C 133.429688 111.984375 133.65625 109.089844 133.328125 89.117188 C 132.960938 66.679688 132.222656 63.324219 128.472656 67.074219 M 151.652344 67.074219 C 149.6875 69.039062 149.328125 108.644531 151.246094 111.675781 C 151.917969 112.738281 153.433594 113.203125 154.667969 112.730469 C 156.613281 111.984375 156.839844 109.089844 156.511719 89.117188 C 156.140625 66.679688 155.402344 63.324219 151.652344 67.074219 M 176.847656 66.335938 C 176.332031 66.851562 175.910156 77.648438 175.910156 90.328125 C 175.910156 111.550781 176.097656 113.34375 178.296875 112.921875 C 180.457031 112.507812 180.683594 110.28125 180.683594 89.414062 C 180.683594 67.707031 179.941406 63.242188 176.847656 66.335938 M 140.726562 78 C 138.820312 79.90625 138.511719 97.882812 140.335938 100.765625 C 141 101.8125 142.527344 102.292969 143.726562 101.832031 C 145.457031 101.167969 145.910156 98.890625 145.910156 90.835938 C 145.910156 77.269531 144.628906 74.097656 140.726562 78 M 163.925781 77.984375 C 162.003906 79.90625 161.683594 97.867188 163.519531 100.765625 C 164.195312 101.835938 165.703125 102.292969 166.960938 101.8125 C 168.839844 101.089844 169.132812 99.0625 168.804688 89.109375 C 168.414062 77.429688 167.214844 74.695312 163.925781 77.984375 M 188.804688 78.074219 C 188.394531 79.140625 188.242188 84.867188 188.460938 90.800781 C 188.777344 99.304688 189.296875 101.589844 190.910156 101.589844 C 192.574219 101.589844 192.953125 99.332031 192.953125 89.429688 C 192.953125 80.917969 192.441406 77.101562 191.25 76.703125 C 190.3125 76.390625 189.210938 77.007812 188.804688 78.074219 M 93.277344 82.355469 C 92.882812 83.375 92.753906 87.199219 92.988281 90.855469 C 93.292969 95.664062 93.972656 97.5 95.453125 97.5 C 98.523438 97.5 99.167969 82.488281 96.148438 81.328125 C 94.933594 80.863281 93.675781 81.3125 93.277344 82.355469 M 199.707031 82.179688 C 199.277344 83.296875 199.117188 87.199219 199.351562 90.855469 C 199.65625 95.664062 200.335938 97.5 201.816406 97.5 C 204.808594 97.5 205.453125 84.269531 202.582031 81.886719 C 200.863281 80.460938 200.347656 80.511719 199.707031 82.179688 "/>
<path style=" stroke:none;fill-rule:evenodd;fill:rgb(41.176471%,10.196078%,93.333333%);fill-opacity:1;" d="M 116.570312 47.96875 C 116.183594 48.976562 116.03125 68.203125 116.230469 90.695312 C 116.542969 125.976562 116.871094 131.589844 118.636719 131.589844 C 120.410156 131.589844 120.683594 125.996094 120.683594 89.429688 C 120.683594 56.925781 120.292969 47.140625 118.980469 46.703125 C 118.039062 46.390625 116.957031 46.960938 116.570312 47.96875 M 104.28125 67.101562 C 103.886719 68.128906 103.734375 78.765625 103.941406 90.738281 C 104.257812 109.003906 104.648438 112.5 106.363281 112.5 C 108.101562 112.5 108.410156 109.027344 108.410156 89.429688 C 108.410156 72.195312 107.976562 66.21875 106.707031 65.796875 C 105.769531 65.484375 104.679688 66.070312 104.28125 67.101562 M 128.472656 67.074219 C 126.507812 69.039062 126.144531 108.644531 128.066406 111.675781 C 128.738281 112.738281 130.25 113.203125 131.484375 112.730469 C 133.429688 111.984375 133.65625 109.089844 133.328125 89.117188 C 132.960938 66.679688 132.222656 63.324219 128.472656 67.074219 M 151.652344 67.074219 C 149.6875 69.039062 149.328125 108.644531 151.246094 111.675781 C 151.917969 112.738281 153.433594 113.203125 154.667969 112.730469 C 156.613281 111.984375 156.839844 109.089844 156.511719 89.117188 C 156.140625 66.679688 155.402344 63.324219 151.652344 67.074219 M 176.847656 66.335938 C 176.332031 66.851562 175.910156 77.648438 175.910156 90.328125 C 175.910156 111.550781 176.097656 113.34375 178.296875 112.921875 C 180.457031 112.507812 180.683594 110.28125 180.683594 89.414062 C 180.683594 67.707031 179.941406 63.242188 176.847656 66.335938 M 140.726562 78 C 138.820312 79.90625 138.511719 97.882812 140.335938 100.765625 C 141 101.8125 142.527344 102.292969 143.726562 101.832031 C 145.457031 101.167969 145.910156 98.890625 145.910156 90.835938 C 145.910156 77.269531 144.628906 74.097656 140.726562 78 M 163.925781 77.984375 C 162.003906 79.90625 161.683594 97.867188 163.519531 100.765625 C 164.195312 101.835938 165.703125 102.292969 166.960938 101.8125 C 168.839844 101.089844 169.132812 99.0625 168.804688 89.109375 C 168.414062 77.429688 167.214844 74.695312 163.925781 77.984375 M 188.804688 78.074219 C 188.394531 79.140625 188.242188 84.867188 188.460938 90.800781 C 188.777344 99.304688 189.296875 101.589844 190.910156 101.589844 C 192.574219 101.589844 192.953125 99.332031 192.953125 89.429688 C 192.953125 80.917969 192.441406 77.101562 191.25 76.703125 C 190.3125 76.390625 189.210938 77.007812 188.804688 78.074219 M 93.277344 82.355469 C 92.882812 83.375 92.753906 87.199219 92.988281 90.855469 C 93.292969 95.664062 93.972656 97.5 95.453125 97.5 C 98.523438 97.5 99.167969 82.488281 96.148438 81.328125 C 94.933594 80.863281 93.675781 81.3125 93.277344 82.355469 M 199.707031 82.179688 C 199.277344 83.296875 199.117188 87.199219 199.351562 90.855469 C 199.65625 95.664062 200.335938 97.5 201.816406 97.5 C 204.808594 97.5 205.453125 84.269531 202.582031 81.886719 C 200.863281 80.460938 200.347656 80.511719 199.707031 82.179688 "/>
</g>
</svg>
